<svg width="340" height="44" fill="none" xmlns="http://www.w3.org/2000/svg"><path d="M21.835 23.26c0 5.177 4.359 9.06 9.278 9.06 3.107 0 5.351-1.208 6.948-3.624.302-.432.086-.863-.303-1.208l-2.589-2.244c-.258-.216-.647-.13-.949.173-.69.69-1.424 1.337-2.934 1.337-1.9 0-3.366-1.553-3.366-3.495 0-1.898 1.553-3.494 3.452-3.494.992 0 1.899.474 2.503 1.122.216.215.733.302.95.086l2.588-2.46c.389-.345.518-.82.216-1.208-1.64-1.984-3.754-3.106-6.473-3.106-4.92 0-9.32 3.97-9.32 9.06ZM39.956 23.216c0 4.962 4.056 9.104 8.976 9.104 4.92 0 8.975-4.142 8.975-9.104 0-4.875-4.056-9.017-8.975-9.017-4.92 0-8.976 4.142-8.976 9.017Zm5.567 0c0-1.898 1.51-3.451 3.409-3.451 1.898 0 3.409 1.553 3.409 3.451 0 1.942-1.51 3.538-3.41 3.538-1.898 0-3.408-1.596-3.408-3.538ZM61.227 31.069c0 .431.388.82.82.82h4.53c.605 0 .777-.432.777-.82v-8.284c0-1.77 1.554-3.02 3.28-3.02 1.942 0 2.934 1.51 2.934 3.236v8.068c0 .431.345.82.82.82h4.617c.432 0 .82-.389.82-.82v-7.853c0-4.918-2.848-9.017-8.199-9.017-3.15 0-5.135 1.64-6.084 2.675l-.69-1.726c-.13-.302-.519-.518-.777-.518h-2.029a.82.82 0 0 0-.82.82V31.07ZM83.42 30.896c.864.69 3.022 1.424 5.87 1.424 4.876 0 7.292-2.46 7.292-5.48 0-3.451-2.416-4.832-5.911-6.04-1.468-.518-1.942-.949-1.942-1.38 0-.475.388-.605.949-.605 1.683 0 3.668.993 3.668.993.345.13.777 0 .906-.259l1.597-2.934c.259-.431-.043-.82-.432-1.079-.95-.604-3.02-1.337-5.739-1.337-4.66 0-6.732 2.33-6.732 5.22 0 2.675 1.467 4.617 4.833 5.782 2.201.777 2.46 1.38 2.46 1.812 0 .518-.388.777-.82.777-1.855 0-3.884-1.122-3.884-1.122-.345-.173-.776.086-.906.345l-1.51 2.977c-.216.388 0 .647.302.906ZM100.729 26.323c0 3.926 1.899 5.997 5.178 5.997 2.158 0 5.222-.95 5.222-.95.431-.129.647-.603.561-.992l-.949-3.58c-.13-.475-.518-.648-.95-.561-.431.086-1.079.302-1.683.302-.518 0-1.165-.087-1.165-1.036V20.11h3.193a.82.82 0 0 0 .82-.82v-3.84a.793.793 0 0 0-.82-.82h-3.193V9.841c0-.431-.345-.82-.777-.82h-4.617a.848.848 0 0 0-.82.82v4.79h-1.122c-.431 0-.777.345-.777.82v3.84c0 .43.346.819.777.819h1.122v6.213ZM113.707 26.625c0 3.408 2.546 5.695 5.955 5.695 2.719 0 4.229-1.251 5.222-2.157l.604 1.165c.216.474.518.56.777.56h1.898c.432 0 .82-.388.82-.82v-9.534c0-5.091-1.942-7.335-7.292-7.335-2.331 0-5.351.518-5.74.647-.388.13-.777.432-.647 1.165l.388 2.718c.087.647.389 1.122 1.036.906 1.122-.345 3.15-.647 4.315-.647 2.072 0 2.33.863 2.33 2.546 0 0-1.38-.69-3.322-.69-3.927 0-6.344 2.459-6.344 5.78Zm5.61-.432c0-.992.82-1.812 1.856-1.812a1.9 1.9 0 0 1 1.898 1.812 1.915 1.915 0 0 1-1.898 1.899c-1.036 0-1.856-.863-1.856-1.899ZM133.372 31.069c0 .431.389.82.82.82h4.531c.604 0 .777-.432.777-.82v-8.284c0-1.77 1.554-3.02 3.28-3.02 1.942 0 2.934 1.51 2.934 3.236v8.068c0 .431.345.82.82.82h4.617c.432 0 .82-.389.82-.82v-7.853c0-4.918-2.848-9.017-8.199-9.017-3.15 0-5.135 1.64-6.084 2.675l-.691-1.726c-.129-.302-.518-.518-.776-.518h-2.029a.82.82 0 0 0-.82.82V31.07ZM156.735 26.323c0 3.926 1.899 5.997 5.178 5.997 2.158 0 5.222-.95 5.222-.95.431-.129.647-.603.561-.992l-.95-3.58c-.129-.475-.518-.648-.949-.561-.432.086-1.079.302-1.683.302-.518 0-1.165-.087-1.165-1.036V20.11h3.193a.82.82 0 0 0 .82-.82v-3.84a.793.793 0 0 0-.82-.82h-3.193V9.841c0-.431-.345-.82-.777-.82h-4.617a.848.848 0 0 0-.82.82v4.79h-1.122c-.432 0-.777.345-.777.82v3.84c0 .43.345.819.777.819h1.122v6.213ZM174.028 9.41c1.899 0 3.453-1.51 3.453-3.409a3.463 3.463 0 0 0-3.453-3.451c-1.898 0-3.409 1.553-3.409 3.451a3.389 3.389 0 0 0 3.409 3.409Zm-3.15 21.659c0 .431.389.82.82.82h4.747a.85.85 0 0 0 .82-.82V15.45a.82.82 0 0 0-.82-.82h-4.747a.82.82 0 0 0-.82.82V31.07ZM181.919 31.069c0 .431.389.82.82.82h4.531c.604 0 .777-.432.777-.82v-8.284c0-1.77 1.553-3.02 3.279-3.02 1.942 0 2.935 1.51 2.935 3.236v8.068c0 .431.345.82.82.82h4.617c.432 0 .82-.389.82-.82v-7.853c0-4.918-2.848-9.017-8.199-9.017-3.15 0-5.135 1.64-6.085 2.675l-.69-1.726c-.129-.302-.518-.518-.777-.518h-2.028a.82.82 0 0 0-.82.82V31.07ZM212.904 23.26c0 5.177 4.358 9.06 9.278 9.06 3.107 0 5.351-1.208 6.947-3.624.302-.432.087-.863-.302-1.208l-2.589-2.244c-.259-.216-.647-.13-.949.173-.691.69-1.424 1.337-2.935 1.337-1.898 0-3.366-1.553-3.366-3.495 0-1.898 1.554-3.494 3.453-3.494.992 0 1.898.474 2.502 1.122.216.215.734.302.95.086l2.589-2.46c.388-.345.518-.82.216-1.208-1.64-1.984-3.755-3.106-6.473-3.106-4.92 0-9.321 3.97-9.321 9.06ZM232.362 31.069c0 .431.389.82.82.82h4.661c.733 0 .949-.26.949-.82v-7.896c0-2.632 1.51-3.408 2.891-3.408 1.899 0 3.15 1.51 3.15 3.408v7.896c0 .431.346.82.82.82h4.575a.848.848 0 0 0 .819-.82v-7.81c0-4.789-2.805-9.06-8.242-9.06-1.294 0-2.718.345-4.013.992V2.507a.848.848 0 0 0-.82-.82h-4.79a.85.85 0 0 0-.82.82v28.562ZM258.395 9.41c1.899 0 3.452-1.51 3.452-3.409a3.462 3.462 0 0 0-3.452-3.451c-1.899 0-3.409 1.553-3.409 3.451a3.388 3.388 0 0 0 3.409 3.409Zm-3.15 21.659c0 .431.388.82.82.82h4.747a.85.85 0 0 0 .82-.82V15.45a.82.82 0 0 0-.82-.82h-4.747a.819.819 0 0 0-.82.82V31.07ZM266.286 31.069c0 .431.388.82.82.82h4.402c.69 0 .949-.302.949-.82v-8.931c0-1.467.992-2.46 2.287-2.46.388 0 .82.13 1.036.216.474.173.776-.086.949-.388l2.115-3.452c.604-.992-1.079-1.855-3.453-1.855-2.244 0-3.84 1.596-4.703 2.848l-.777-1.899c-.13-.259-.302-.518-.777-.518h-2.028a.819.819 0 0 0-.82.82V31.07ZM284.312 9.41c1.899 0 3.452-1.51 3.452-3.409a3.462 3.462 0 0 0-3.452-3.451c-1.899 0-3.409 1.553-3.409 3.451a3.388 3.388 0 0 0 3.409 3.409Zm-3.15 21.659c0 .431.388.82.82.82h4.747a.85.85 0 0 0 .82-.82V15.45a.82.82 0 0 0-.82-.82h-4.747a.819.819 0 0 0-.82.82V31.07ZM292.203 31.069c0 .431.388.82.82.82h4.747a.85.85 0 0 0 .82-.82V2.507a.85.85 0 0 0-.82-.82h-4.747a.848.848 0 0 0-.82.82v28.562ZM302.079 26.625c0 3.408 2.546 5.695 5.955 5.695 2.719 0 4.229-1.251 5.221-2.157l.605 1.165c.215.474.517.56.776.56h1.899c.432 0 .82-.388.82-.82v-9.534c0-5.091-1.942-7.335-7.293-7.335-2.33 0-5.351.518-5.739.647-.389.13-.777.432-.647 1.165l.388 2.718c.086.647.388 1.122 1.036.906 1.122-.345 3.15-.647 4.315-.647 2.071 0 2.33.863 2.33 2.546 0 0-1.381-.69-3.323-.69-3.927 0-6.343 2.459-6.343 5.78Zm5.61-.432c0-.992.82-1.812 1.855-1.812a1.9 1.9 0 0 1 1.899 1.812 1.915 1.915 0 0 1-1.899 1.899c-1.035 0-1.855-.863-1.855-1.899Z" fill="#fff"/><path d="M3.625 31.414c0 10.312 6.343 12.296 10.788 12.555.431.043.82-.302.863-.733.173-1.295.173-2.157.216-3.668 0-.345-.302-.733-.604-.82-3.021-.776-4.747-3.106-4.747-7.334v-4.056c0-3.106-2.546-4.703-3.668-5.177v-.173s3.668-2.114 3.668-5.522v-3.927c0-4.228 1.726-6.558 4.747-7.334.302-.087.604-.475.604-.82-.087-1.338-.13-2.373-.216-3.667-.043-.475-.388-.777-.863-.734C9.968.263 3.625 2.248 3.625 12.56v4.79c0 1.768-3.064 2.76-3.064 2.76-.259.087-.561.432-.561.777v2.503c0 .345.302.733.647.777 1.036.215 2.978.82 2.978 2.76v4.488ZM329.859 31.414c0 4.228-1.726 6.558-4.747 7.335-.302.086-.604.474-.604.82.043 1.51.043 2.372.216 3.667.043.431.432.776.863.733 4.445-.259 10.788-2.243 10.788-12.555v-4.487c0-1.942 1.942-2.546 2.978-2.761.345-.044.647-.432.647-.777v-2.502c0-.346-.302-.69-.561-.777 0 0-3.064-.992-3.064-2.761v-4.79c0-10.311-6.343-12.296-10.788-12.555-.475-.043-.82.259-.863.734-.086 1.294-.129 2.33-.216 3.667 0 .345.302.733.604.82 3.021.776 4.747 3.106 4.747 7.334v3.927c0 3.408 3.668 5.522 3.668 5.522v.173c-1.122.474-3.668 2.07-3.668 5.177v4.056Z" fill="#CD3453"/></svg>