<svg width="80" height="80" fill="none" xmlns="http://www.w3.org/2000/svg"><path d="M0 12.8C0 5.73 3.98 0 8.889 0H71.11C76.021 0 80 5.73 80 12.8v54.4c0 7.07-3.98 12.8-8.889 12.8H8.89C3.979 80 0 74.27 0 67.2V12.8Z" fill="url(#a)"/><path d="M24.03 39.69c0 4.922 3.964 8.836 8.887 8.836 2.19 0 4.308-.763 5.981-2.388.173-.172.197-.492.025-.664l-1.92-2.043c-.148-.173-.468-.173-.64-.025-.886.763-2.142 1.181-3.298 1.181-2.782 0-4.85-2.264-4.85-4.996 0-2.757 2.044-5.071 4.825-5.071a5.03 5.03 0 0 1 3.323 1.255.43.43 0 0 0 .615 0l1.92-1.994a.458.458 0 0 0-.024-.689c-1.674-1.526-3.495-2.29-5.957-2.29a8.866 8.866 0 0 0-8.886 8.887ZM40.521 39.69c0 4.922 3.963 8.836 8.886 8.836 2.191 0 4.308-.763 5.982-2.388.172-.172.197-.492.024-.664l-1.92-2.043c-.147-.173-.467-.173-.64-.025-.886.763-2.141 1.181-3.298 1.181-2.782 0-4.85-2.264-4.85-4.996 0-2.757 2.044-5.071 4.825-5.071a5.03 5.03 0 0 1 3.323 1.255.43.43 0 0 0 .616 0l1.92-1.994a.457.457 0 0 0-.025-.689c-1.674-1.526-3.495-2.29-5.957-2.29a8.867 8.867 0 0 0-8.886 8.887ZM11.508 46.71c0 7.354 4.523 8.77 7.692 8.954.308.031.585-.215.615-.523.123-.923.123-1.538.154-2.615 0-.246-.215-.523-.43-.585-2.154-.553-3.385-2.215-3.385-5.23v-2.893c0-2.215-1.816-3.354-2.615-3.692v-.123s2.615-1.508 2.615-3.939v-2.8c0-3.015 1.23-4.677 3.384-5.23.216-.062.431-.339.431-.585-.061-.954-.092-1.692-.154-2.615-.03-.339-.277-.554-.615-.523-3.17.184-7.692 1.6-7.692 8.953v3.416c0 1.261-2.185 1.97-2.185 1.97-.185.06-.4.307-.4.553v1.784c0 .247.215.524.462.554.738.154 2.123.585 2.123 1.97v3.2ZM64.123 46.71c0 3.016-1.23 4.678-3.385 5.231-.215.062-.43.339-.43.585.03 1.077.03 1.692.154 2.615.03.308.307.554.615.523 3.17-.184 7.692-1.6 7.692-8.953v-3.2c0-1.385 1.385-1.816 2.123-1.97.246-.03.462-.307.462-.553v-1.785c0-.246-.216-.492-.4-.554 0 0-2.185-.708-2.185-1.97v-3.415c0-7.353-4.523-8.769-7.692-8.953-.339-.031-.585.184-.615.523-.062.923-.093 1.661-.154 2.615 0 .246.215.523.43.585 2.154.553 3.385 2.215 3.385 5.23v2.8c0 2.431 2.615 3.939 2.615 3.939v.123c-.8.338-2.615 1.477-2.615 3.692v2.893Z" fill="#fff"/><defs><linearGradient id="a" x1="11.574" y1="14" x2="102.905" y2="58.087" gradientUnits="userSpaceOnUse"><stop stop-color="#FF3C62"/><stop offset="1" stop-color="#6036F8"/></linearGradient></defs></svg>