<svg width="30" height="24" fill="none" xmlns="http://www.w3.org/2000/svg"><g clip-path="url(#a)" fill="#fff"><path d="M27.311 23.563c.674 0 1.259-.223 1.755-.662l-8.496-8.497-.588.423a39.24 39.24 0 0 1-1.549 1.096c-.396.262-.923.53-1.58.803-.66.274-1.273.41-1.842.41h-.033c-.57 0-1.183-.136-1.841-.41-.659-.273-1.186-.54-1.582-.803a39.533 39.533 0 0 1-1.548-1.096c-.177-.13-.374-.273-.586-.425L.923 22.9c.496.44 1.08.662 1.755.662H27.31ZM1.69 9.054A8.872 8.872 0 0 1 0 7.598v12.927l7.489-7.49A578.023 578.023 0 0 0 1.69 9.055ZM28.316 9.054a492.22 492.22 0 0 0-5.813 3.985l7.486 7.486V7.598a9.236 9.236 0 0 1-1.673 1.456Z"/><path d="M27.311 0H2.678c-.86 0-1.52.29-1.983.87C.232 1.45 0 2.176 0 3.046 0 3.748.307 4.51.92 5.33c.614.82 1.267 1.464 1.959 1.933.379.268 1.523 1.063 3.43 2.384a1087.572 1087.572 0 0 1 4.385 3.055c.054.037.138.098.25.178l.461.332c.363.262.664.474.904.636a17 17 0 0 0 .87.544c.34.2.662.352.963.452.3.1.58.15.836.15h.034c.256 0 .535-.05.836-.15.301-.1.622-.25.963-.452.34-.2.63-.382.87-.544.24-.162.541-.373.904-.636a101.948 101.948 0 0 1 .711-.51l1.694-1.177c1.387-.964 3.43-2.383 6.138-4.262a7.959 7.959 0 0 0 2.041-2.059c.546-.803.82-1.645.82-2.526 0-.737-.265-1.367-.795-1.892C28.664.262 28.036 0 27.311 0Z"/></g><defs><clipPath id="a"><path fill="#fff" d="M0 0h30v24H0z"/></clipPath></defs></svg>