<svg width="24" height="24" fill="none" xmlns="http://www.w3.org/2000/svg"><g clip-path="url(#a)"><path d="M22.367 5.99a11.935 11.935 0 0 0-4.362-4.362C16.168.556 14.163.02 11.988.02 9.813.02 7.807.556 5.97 1.628A11.934 11.934 0 0 0 1.608 5.99C.536 7.827 0 9.833 0 12.007c0 2.612.762 4.961 2.287 7.047 1.524 2.087 3.493 3.53 5.907 4.332.281.052.49.015.625-.11a.61.61 0 0 0 .203-.468l-.008-.842c-.006-.531-.008-.994-.008-1.39l-.36.063c-.228.042-.517.06-.865.054a6.604 6.604 0 0 1-1.085-.109 2.424 2.424 0 0 1-1.046-.468 1.98 1.98 0 0 1-.687-.96l-.156-.359a3.902 3.902 0 0 0-.491-.796c-.224-.291-.45-.489-.68-.593l-.109-.078a1.148 1.148 0 0 1-.202-.187.856.856 0 0 1-.14-.219c-.032-.073-.006-.133.077-.18.084-.047.234-.07.453-.07l.312.047c.208.042.465.166.773.375.306.208.559.478.756.811.24.427.528.752.867.976.338.224.679.335 1.022.335.343 0 .64-.026.89-.078.25-.052.483-.13.702-.234.094-.697.349-1.233.765-1.608a10.686 10.686 0 0 1-1.6-.28 6.372 6.372 0 0 1-1.467-.61 4.202 4.202 0 0 1-1.257-1.045c-.333-.417-.606-.963-.819-1.64-.213-.676-.32-1.456-.32-2.34 0-1.26.411-2.331 1.233-3.216-.385-.947-.349-2.008.11-3.184.301-.094.749-.023 1.342.21.593.235 1.027.435 1.303.602.276.166.497.307.663.421.968-.27 1.967-.406 2.997-.406 1.03 0 2.03.136 2.998.406l.593-.374a8.4 8.4 0 0 1 1.435-.687c.552-.208.974-.266 1.265-.172.468 1.176.51 2.237.125 3.184.822.885 1.233 1.957 1.233 3.216 0 .884-.107 1.667-.32 2.349-.213.681-.489 1.227-.827 1.639-.338.41-.76.757-1.264 1.037a6.383 6.383 0 0 1-1.468.61 10.68 10.68 0 0 1-1.6.28c.541.469.812 1.208.812 2.217v3.293c0 .187.065.343.195.468s.336.161.617.11c2.414-.802 4.383-2.246 5.908-4.332 1.524-2.086 2.286-4.435 2.286-7.047 0-2.175-.537-4.18-1.608-6.017Z" fill="#fff"/></g><defs><clipPath id="a"><path fill="#fff" d="M0 0h24v24H0z"/></clipPath></defs></svg>