<svg width="24" height="24" fill="none" xmlns="http://www.w3.org/2000/svg"><path d="M12 2.133c3.204 0 3.584.012 4.85.07 3.252.145 4.771 1.667 4.919 4.85.058 1.248.069 1.622.069 4.782 0 3.161-.012 3.535-.069 4.782-.149 3.18-1.664 4.705-4.919 4.851-1.266.058-1.644.07-4.85.07-3.204 0-3.584-.012-4.849-.07-3.26-.147-4.771-1.675-4.919-4.852-.058-1.247-.07-1.621-.07-4.782 0-3.16.013-3.533.07-4.782.149-3.182 1.664-4.705 4.919-4.85 1.266-.057 1.645-.069 4.849-.069ZM12 0C8.741 0 8.333.014 7.053.071 2.695.268.273 2.653.073 6.955.014 8.218 0 8.62 0 11.835c0 3.213.014 3.617.072 4.879.2 4.298 2.618 6.686 6.98 6.884 1.281.057 1.689.07 4.948.07 3.259 0 3.668-.013 4.948-.07 4.354-.198 6.782-2.582 6.979-6.884.059-1.262.073-1.666.073-4.88s-.014-3.616-.072-4.878C23.732 2.662 21.311.269 16.949.072 15.668.014 15.259 0 12 0Zm0 5.757c-3.403 0-6.162 2.721-6.162 6.077S8.597 17.912 12 17.912s6.162-2.72 6.162-6.078c0-3.356-2.759-6.077-6.162-6.077Zm0 10.022c-2.209 0-4-1.765-4-3.945C8 9.656 9.791 7.89 12 7.89s4 1.767 4 3.945c0 2.18-1.791 3.945-4 3.945Zm6.406-11.681a1.43 1.43 0 0 0-1.441 1.42c0 .784.645 1.42 1.441 1.42a1.43 1.43 0 0 0 1.439-1.42 1.43 1.43 0 0 0-1.439-1.42Z" fill="#fff"/></svg>