<svg width="25" height="24" fill="none" xmlns="http://www.w3.org/2000/svg"><g clip-path="url(#a)"><path d="M24.949 14.548v9.16H19.6V15.16c0-2.147-.773-3.612-2.709-3.612-1.477 0-2.356.987-2.743 1.943-.141.341-.178.816-.178 1.294v8.922H8.622s.072-14.475 0-15.975h5.349v2.264c-.011.017-.025.035-.035.052h.035v-.052c.71-1.087 1.98-2.64 4.82-2.64 3.52 0 6.158 2.284 6.158 7.19ZM3.027.032C1.197.032 0 1.224 0 2.792c0 1.533 1.162 2.761 2.956 2.761h.036c1.865 0 3.025-1.228 3.025-2.761-.035-1.568-1.16-2.76-2.99-2.76ZM.317 23.708h5.348V7.733H.318v15.975Z" fill="#fff"/></g><defs><clipPath id="a"><path fill="#fff" d="M0 0h25v24H0z"/></clipPath></defs></svg>