<svg width="29" height="24" fill="none" xmlns="http://www.w3.org/2000/svg"><g clip-path="url(#a)"><path d="M28.8 2.773c-1.06.47-2.197.79-3.392.932A5.942 5.942 0 0 0 28.004.433 11.897 11.897 0 0 1 24.25 1.87 5.886 5.886 0 0 0 19.938 0a5.914 5.914 0 0 0-5.908 5.918c0 .463.052.916.153 1.348C9.273 7.02 4.92 4.663 2.007 1.082c-.51.873-.8 1.89-.8 2.975a5.92 5.92 0 0 0 2.628 4.926A5.9 5.9 0 0 1 1.16 8.24v.074a5.922 5.922 0 0 0 4.738 5.804 5.97 5.97 0 0 1-1.556.207c-.382 0-.75-.037-1.112-.11a5.913 5.913 0 0 0 5.517 4.111 11.839 11.839 0 0 1-7.337 2.53c-.477 0-.947-.029-1.409-.08a16.677 16.677 0 0 0 9.056 2.662c10.868 0 16.809-9.019 16.809-16.84l-.02-.767A11.811 11.811 0 0 0 28.8 2.773Z" fill="#fff"/></g><defs><clipPath id="a"><path fill="#fff" d="M0 0h28.8v24H0z"/></clipPath></defs></svg>