<svg width="609" height="1613" fill="none" xmlns="http://www.w3.org/2000/svg"><circle cx="78.49" cy="191.666" r="4.667" transform="rotate(15.23 78.49 191.666)" fill="#26D5CF"/><circle cx="347.691" cy="315.337" r="4.667" transform="rotate(29.892 347.691 315.337)" fill="#2B1363"/><circle cx="92.787" cy="542.944" r="4.667" transform="rotate(169.515 92.787 542.944)" fill="#2B1363"/><circle cx="431.887" cy="5.901" r="4.667" transform="rotate(71.61 431.887 5.9)" fill="#2B1363"/><circle cx="457.691" cy="154.682" r="4.667" transform="rotate(29.892 457.691 154.682)" fill="#2B1363"/><circle cx="486.254" cy="610.396" r="4.667" transform="rotate(29.892 486.254 610.396)" fill="#2B1363"/><circle opacity=".2" cx="164.029" cy="731.435" r="4.667" transform="rotate(-77.27 164.029 731.435)" fill="#26D5CF"/><circle cx="468.943" cy="488.058" r="4.667" transform="rotate(-160.966 468.943 488.058)" fill="#241050"/><circle cx="562.251" cy="154.596" r="4.667" transform="rotate(-160.966 562.251 154.596)" fill="#241050"/><circle cx="569.76" cy="288.549" r="4.667" transform="rotate(-101.064 569.76 288.549)" fill="#241050"/><circle opacity=".5" cx="164.416" cy="78.382" r="3.267" transform="rotate(-111.718 164.416 78.382)" fill="#26D5CF"/><circle cx="348.911" cy="379.043" r="3.267" transform="rotate(29.892 348.911 379.043)" fill="#2B1363"/><circle cx="50.588" cy="495.202" r="3.267" transform="rotate(169.515 50.588 495.202)" fill="#2B1363"/><circle cx="390.402" cy="54.264" r="3.267" transform="rotate(71.61 390.402 54.264)" fill="#2B1363"/><circle cx="229.373" cy="769.499" r="3.267" transform="rotate(-148.766 229.373 769.499)" fill="#2B1363"/><circle cx="458.911" cy="218.389" r="3.267" transform="rotate(29.892 458.911 218.389)" fill="#2B1363"/><circle cx="584.154" cy="237.864" r="3.267" transform="rotate(29.892 584.154 237.864)" fill="#2B1363"/><circle cx="67.955" cy="785.759" r="3.267" transform="rotate(29.892 67.955 785.759)" fill="#26D5CF"/><circle opacity=".5" cx="94.706" cy="707.114" r="3.267" transform="rotate(-77.27 94.706 707.114)" fill="#26D5CF"/><circle cx="460.635" cy="451.223" r="3.267" transform="rotate(-160.966 460.635 451.223)" fill="#241050"/><circle cx="553.943" cy="117.762" r="3.267" transform="rotate(-160.966 553.943 117.762)" fill="#241050"/><circle cx="500.783" cy="699.128" r="3.267" transform="rotate(-101.064 500.783 699.128)" fill="#241050"/><circle cx="335.262" cy="783.005" r="3.267" transform="rotate(-160.966 335.262 783.005)" fill="#26D5CF"/><circle cx="543.503" cy="448.382" r="3.267" transform="rotate(-112.598 543.503 448.382)" fill="#2B1363"/><circle cx="98.55" cy="87.443" r="3.267" transform="rotate(-112.598 98.55 87.443)" fill="#2B1363"/><circle opacity=".4" cx="9.314" cy="344.391" r="3.267" transform="rotate(-2.897 9.314 344.391)" fill="#26D5CF"/><circle opacity=".5" cx="24.452" cy="466.652" r="4.667" transform="rotate(-78.928 24.452 466.652)" fill="#26D5CF"/><circle opacity=".5" cx="-2.948" cy="625.919" r="2.8" transform="rotate(-78.928 -2.948 625.919)" fill="#26D5CF"/><circle opacity=".5" cx="120.327" cy="204.991" r="2.8" transform="rotate(15.23 120.327 204.991)" fill="#26D5CF"/><circle opacity=".5" cx="69.001" cy="123.487" r="2.8" transform="rotate(-78.928 69.001 123.487)" fill="#26D5CF"/><circle opacity=".5" cx="80.859" cy="703.429" r="2.8" transform="rotate(15.84 80.859 703.429)" fill="#26D5CF"/><circle cx="375.246" cy="533.934" r="2.8" transform="rotate(-78.928 375.246 533.934)" fill="#26D5CF"/><circle cx="256.598" cy="133.236" r="2.8" transform="rotate(-37.21 256.598 133.236)" fill="#26D5CF"/><circle cx="280.147" cy="622.659" r="2.8" transform="rotate(102.414 280.147 622.659)" fill="#26D5CF"/><circle cx="405.593" cy="304.066" r="2.8" transform="rotate(90.213 405.593 304.066)" fill="#2B1363"/><circle cx="482.607" cy="36.022" r="2.8" transform="rotate(131.932 482.607 36.022)" fill="#2B1363"/><circle cx="499.209" cy="765.134" r="2.8" transform="rotate(131.419 499.209 765.134)" fill="#2B1363"/><circle cx="544.157" cy="599.126" r="2.8" transform="rotate(90.213 544.157 599.126)" fill="#2B1363"/><circle cx="376.33" cy="599.432" r="2.8" transform="rotate(90.213 376.33 599.432)" fill="#26D5CF"/><circle cx="264.205" cy="237.013" r="2.8" transform="rotate(131.932 264.205 237.013)" fill="#26D5CF"/><circle cx="207.126" cy="548.528" r="2.8" transform="rotate(-88.444 207.126 548.528)" fill="#26D5CF"/><circle cx="13.509" cy="632.084" r="2.8" transform="rotate(-111.718 13.51 632.084)" fill="#26D5CF"/><circle cx="112.986" cy="220.958" r="2.8" transform="rotate(-17.56 112.986 220.958)" fill="#26D5CF"/><circle cx="187.164" cy="147.803" r="2.8" transform="rotate(-111.718 187.164 147.803)" fill="#26D5CF"/><circle cx="446.49" cy="367.952" r="2.8" transform="rotate(29.892 446.49 367.952)" fill="#2B1363"/><circle cx="487.892" cy="840.139" r="2.8" transform="rotate(71.098 487.892 840.139)" fill="#2B1363"/><circle cx="585.054" cy="663.011" r="2.8" transform="rotate(29.892 585.054 663.011)" fill="#2B1363"/><circle cx="439.563" cy="685.126" r="2.8" transform="rotate(29.892 439.563 685.126)" fill="#2B1363"/><circle cx="152.349" cy="245.275" r="2.8" transform="rotate(71.61 152.349 245.275)" fill="#26D5CF"/><circle cx="499.666" cy="818.727" r="2.8" transform="rotate(78.26 499.666 818.727)" fill="#2B1363"/><circle cx="151.392" cy="21.55" r="2.8" transform="rotate(78.26 151.392 21.55)" fill="#2B1363"/><circle opacity=".5" cx="129.105" cy="706.566" r="2.8" transform="rotate(29.892 129.105 706.566)" fill="#26D5CF"/><circle cx="53.536" cy="416.353" r="2.8" transform="rotate(-172.039 53.536 416.353)" fill="#26D5CF"/><circle cx="336.308" cy="141.958" r="2.8" transform="rotate(-119.248 336.308 141.958)" fill="#26D5CF"/><circle cx="213.773" cy="667.651" r="2.8" transform="rotate(20.376 213.773 667.651)" fill="#26D5CF"/><circle cx="116.921" cy="149.185" r="1.867" transform="rotate(-78.928 116.921 149.185)" fill="#26D5CF"/><circle opacity=".2" cx="120.496" cy="693.64" r="1.867" transform="rotate(-78.928 120.496 693.64)" fill="#26D5CF"/><circle cx="481.546" cy="210.079" r="1.867" transform="rotate(90.213 481.546 210.079)" fill="#2B1363"/><circle cx="607.126" cy="505.138" r="1.867" transform="rotate(90.213 607.126 505.138)" fill="#2B1363"/><circle cx="252.47" cy="813.549" r="1.867" transform="rotate(138.063 252.47 813.549)" fill="#26D5CF"/><circle cx="368.992" cy="843.032" r="1.867" transform="rotate(-173.568 368.992 843.032)" fill="#2B1363"/><circle cx="79.98" cy="575.894" r="1.867" transform="rotate(-111.718 79.98 575.894)" fill="#26D5CF"/><circle cx="116.111" cy="273.162" r="1.867" transform="rotate(-64.8 116.111 273.162)" fill="#26D5CF"/><circle cx="389.456" cy="255.427" r="1.867" transform="rotate(29.892 389.456 255.427)" fill="#2B1363"/><circle cx="99.78" cy="615.639" r="1.867" transform="rotate(169.515 99.78 615.639)" fill="#2B1363"/><circle cx="519.11" cy="717.908" r="1.867" transform="rotate(71.098 519.11 717.908)" fill="#2B1363"/><circle cx="528.019" cy="550.486" r="1.867" transform="rotate(29.892 528.019 550.486)" fill="#2B1363"/><circle cx="373.175" cy="550.792" r="1.867" transform="rotate(29.892 373.175 550.792)" fill="#26D5CF"/><circle cx="34.602" cy="676.026" r="1.867" transform="rotate(-172.039 34.602 676.026)" fill="#26D5CF"/><circle cx="67.63" cy="238.808" r="1.867" transform="rotate(-77.881 67.63 238.808)" fill="#26D5CF"/><circle cx="431.352" cy="582.71" r="1.867" transform="rotate(-160.966 431.352 582.71)" fill="#241050"/><circle cx="316.403" cy="261.148" r="1.867" transform="rotate(-119.248 316.403 261.148)" fill="#241050"/><circle cx="151.726" cy="563.957" r="1.867" transform="rotate(20.376 151.726 563.957)" fill="#241050"/><circle cx="372.339" cy="739.73" r="1.867" transform="rotate(-101.064 372.339 739.73)" fill="#241050"/><circle opacity=".5" cx="-.749" cy="498.314" r="1.867" transform="rotate(-78.928 -.75 498.314)" fill="#26D5CF"/><circle opacity=".5" cx="43.238" cy="386.845" r="1.867" transform="rotate(-78.928 43.238 386.845)" fill="#26D5CF"/><circle cx="282.765" cy="331.816" r="1.399" transform="rotate(79.14 282.765 331.816)" fill="#2B1363"/><circle cx="131.572" cy="488.331" r="1.399" transform="rotate(-141.236 131.572 488.331)" fill="#2B1363"/><circle cx="362.276" cy="316.184" r="1.867" transform="rotate(29.892 362.276 316.184)" fill="#2B1363"/><circle cx="81.126" cy="551.746" r="1.867" transform="rotate(169.515 81.126 551.746)" fill="#2B1363"/><circle cx="442.21" cy="16.24" r="1.867" transform="rotate(71.61 442.21 16.24)" fill="#2B1363"/><circle cx="472.276" cy="155.53" r="1.867" transform="rotate(29.892 472.276 155.53)" fill="#2B1363"/><circle cx="500.839" cy="611.244" r="1.867" transform="rotate(29.892 500.839 611.244)" fill="#2B1363"/><circle cx="333.012" cy="637.516" r="1.867" transform="rotate(29.892 333.012 637.516)" fill="#26D5CF"/><circle cx="206.527" cy="236.613" r="1.867" transform="rotate(71.61 206.527 236.613)" fill="#26D5CF"/><circle cx="81.32" cy="748.867" r="1.867" transform="rotate(29.892 81.32 748.867)" fill="#26D5CF"/><circle cx="160.536" cy="717.25" r="1.867" transform="rotate(-77.27 160.536 717.25)" fill="#26D5CF"/><circle cx="454.459" cy="489.973" r="1.867" transform="rotate(-160.966 454.459 489.973)" fill="#241050"/><circle cx="547.768" cy="156.511" r="1.867" transform="rotate(-160.966 547.768 156.511)" fill="#241050"/><circle cx="445.262" cy="895.428" r="1.867" transform="rotate(-59.858 445.262 895.428)" fill="#241050"/><circle cx="461.224" cy="153.068" r="1.867" transform="rotate(90.213 461.224 153.068)" fill="#2B1363"/><circle cx="599.788" cy="448.127" r="1.867" transform="rotate(90.213 599.788 448.127)" fill="#2B1363"/><circle cx="281.1" cy="760.224" r="1.867" transform="rotate(138.063 281.1 760.224)" fill="#2B1363"/><circle cx="120.125" cy="621.19" r="1.867" transform="rotate(-111.718 120.125 621.19)" fill="#26D5CF"/><circle cx="438.113" cy="539.864" r="1.867" transform="rotate(-160.966 438.113 539.864)" fill="#26D5CF"/><circle cx="403.418" cy="791.667" r="1.867" transform="rotate(-101.064 403.418 791.667)" fill="#26D5CF"/><circle cx="45.632" cy="761.839" r="2.8" transform="rotate(-78.928 45.632 761.839)" fill="#26D5CF"/><circle cx="379.13" cy="108.012" r="1.867" transform="rotate(-37.21 379.13 108.012)" fill="#26D5CF"/><circle cx="203.143" cy="721.252" r="1.867" transform="rotate(102.414 203.143 721.252)" fill="#26D5CF"/><circle cx="250.89" cy="758.444" r="1.867" transform="rotate(-78.928 250.89 758.444)" fill="#26D5CF"/><circle cx="505.809" cy="369.004" r="1.867" transform="rotate(-30.56 505.809 369.004)" fill="#2B1363"/><circle cx="61.409" cy="294.669" r="1.867" transform="rotate(79.14 61.41 294.669)" fill="#26D5CF"/><circle cx="424.801" cy="409.609" r="1.867" transform="rotate(90.213 424.801 409.609)" fill="#241050"/><circle cx="518.109" cy="76.147" r="1.867" transform="rotate(90.213 518.109 76.147)" fill="#241050"/><circle cx="426.708" cy="127.582" r="1.867" transform="rotate(131.932 426.708 127.582)" fill="#241050"/><circle cx="518.817" cy="647.257" r="1.867" transform="rotate(150.116 518.817 647.257)" fill="#241050"/><circle cx="299.428" cy="741.39" r="1.867" transform="rotate(90.213 299.428 741.39)" fill="#2B1363"/><circle cx="550.801" cy="393.953" r="1.867" transform="rotate(138.581 550.801 393.953)" fill="#2B1363"/><circle cx="105.848" cy="33.014" r="1.867" transform="rotate(138.581 105.848 33.014)" fill="#2B1363"/><circle cx="58.097" cy="369.61" r="1.867" transform="rotate(-111.718 58.097 369.61)" fill="#26D5CF"/><circle cx="383.182" cy="83.253" r="1.399" transform="rotate(-37.21 383.182 83.253)" fill="#26D5CF"/><circle cx="216.095" cy="742.738" r="1.399" transform="rotate(102.414 216.095 742.738)" fill="#26D5CF"/><circle cx="237.439" cy="737.267" r="1.399" transform="rotate(-78.928 237.439 737.267)" fill="#26D5CF"/><circle cx="512.701" cy="344.881" r="1.399" transform="rotate(-30.56 512.701 344.881)" fill="#2B1363"/><circle cx="150.451" cy="756.119" r="1.399" transform="rotate(-78.928 150.451 756.119)" fill="#26D5CF"/><circle cx="306.273" cy="146.199" r="1.399" transform="rotate(126.059 306.273 146.199)" fill="#26D5CF"/><circle cx="233.907" cy="644.963" r="1.399" transform="rotate(-94.318 233.907 644.963)" fill="#26D5CF"/><circle opacity=".5" cx="115.868" cy="686.029" r="1.399" transform="rotate(173.909 115.868 686.029)" fill="#26D5CF"/><circle cx="442.001" cy="427.873" r="1.399" transform="rotate(90.213 442.001 427.873)" fill="#241050"/><circle cx="535.309" cy="94.411" r="1.399" transform="rotate(90.213 535.309 94.411)" fill="#241050"/><circle cx="511.64" cy="671.297" r="1.399" transform="rotate(150.116 511.64 671.297)" fill="#241050"/><circle cx="316.627" cy="759.654" r="1.399" transform="rotate(90.213 316.627 759.654)" fill="#2B1363"/><circle cx="548.577" cy="418.942" r="1.399" transform="rotate(138.581 548.577 418.942)" fill="#2B1363"/><circle cx="103.623" cy="58.003" r="1.399" transform="rotate(138.581 103.623 58.003)" fill="#2B1363"/><circle cx="566.261" cy="384.451" r="2.8" transform="rotate(-78.928 566.261 384.451)" fill="#2B1363"/><circle cx="466.293" cy="295.892" r="2.8" transform="rotate(90.213 466.293 295.892)" fill="#2B1363"/><circle cx="576.293" cy="135.238" r="2.8" transform="rotate(90.213 576.293 135.238)" fill="#2B1363"/><circle cx="604.857" cy="590.951" r="2.8" transform="rotate(90.213 604.857 590.951)" fill="#2B1363"/><circle cx="437.029" cy="591.257" r="2.8" transform="rotate(90.213 437.029 591.257)" fill="#241050"/><circle cx="314.952" cy="271.305" r="2.8" transform="rotate(131.932 314.952 271.305)" fill="#241050"/><circle cx="146.252" cy="555.278" r="2.8" transform="rotate(-88.444 146.252 555.278)" fill="#241050"/><circle cx="367.79" cy="748.927" r="2.8" transform="rotate(150.116 367.79 748.927)" fill="#241050"/><circle cx="237.451" cy="203.869" r="2.8" transform="rotate(-37.21 237.451 203.869)" fill="#26D5CF"/><circle cx="248.977" cy="556.446" r="2.8" transform="rotate(102.414 248.977 556.446)" fill="#26D5CF"/><circle cx="421.787" cy="238.839" r="2.8" transform="rotate(90.213 421.787 238.839)" fill="#2B1363"/><circle cx="554.362" cy="726.728" r="2.8" transform="rotate(131.419 554.362 726.728)" fill="#2B1363"/><circle cx="560.351" cy="533.899" r="2.8" transform="rotate(90.213 560.351 533.899)" fill="#2B1363"/><circle cx="10.805" cy="703.488" r="2.8" transform="rotate(-111.718 10.805 703.488)" fill="#26D5CF"/><circle cx="39.369" cy="197.263" r="2.8" transform="rotate(-17.56 39.369 197.263)" fill="#26D5CF"/><circle cx="391.283" cy="349.256" r="2.8" transform="rotate(29.892 391.283 349.256)" fill="#2B1363"/><circle cx="37.605" cy="545.343" r="2.8" transform="rotate(169.515 37.605 545.343)" fill="#2B1363"/><circle cx="441.853" cy="60.228" r="2.8" transform="rotate(71.61 441.853 60.228)" fill="#2B1363"/><circle cx="458.674" cy="789.705" r="2.8" transform="rotate(71.098 458.674 789.705)" fill="#2B1363"/><circle cx="529.846" cy="644.315" r="2.8" transform="rotate(29.892 529.846 644.315)" fill="#2B1363"/><circle cx="197.791" cy="94.669" r="2.8" transform="rotate(71.61 197.791 94.67)" fill="#26D5CF"/><circle cx="70.175" cy="639.048" r="2.8" transform="rotate(-172.039 70.175 639.048)" fill="#26D5CF"/><circle cx="2.64" cy="234.077" r="2.8" transform="rotate(-125.121 2.64 234.077)" fill="#26D5CF"/><circle cx="419.22" cy="529.157" r="2.8" transform="rotate(-160.966 419.22 529.157)" fill="#241050"/><circle cx="342.985" cy="213.101" r="2.8" transform="rotate(-119.248 342.985 213.101)" fill="#241050"/><circle cx="162.601" cy="617.779" r="2.8" transform="rotate(20.376 162.601 617.779)" fill="#241050"/><circle cx="413.6" cy="853.3" r="2.8" transform="rotate(-59.858 413.6 853.3)" fill="#241050"/><circle cx="63.469" cy="967.23" r="4.267" transform="rotate(15.23 63.469 967.23)" fill="#26D5CF"/><circle cx="309.586" cy="1080.3" r="4.267" transform="rotate(29.892 309.586 1080.3)" fill="#2B1363"/><circle cx="76.539" cy="1288.39" r="4.267" transform="rotate(169.515 76.54 1288.39)" fill="#2B1363"/><circle cx="386.563" cy="797.395" r="4.267" transform="rotate(71.61 386.563 797.395)" fill="#2B1363"/><circle cx="410.154" cy="933.418" r="4.267" transform="rotate(29.892 410.154 933.418)" fill="#2B1363"/><circle cx="436.268" cy="1350.05" r="4.267" transform="rotate(29.892 436.268 1350.05)" fill="#2B1363"/><circle opacity=".2" cx="141.673" cy="1460.72" r="4.267" transform="rotate(-77.27 141.673 1460.72)" fill="#26D5CF"/><circle cx="420.441" cy="1238.21" r="4.267" transform="rotate(-160.966 420.441 1238.21)" fill="#241050"/><circle cx="505.748" cy="933.339" r="4.267" transform="rotate(-160.966 505.748 933.339)" fill="#241050"/><circle cx="512.613" cy="1055.81" r="4.267" transform="rotate(-101.064 512.613 1055.81)" fill="#241050"/><circle opacity=".5" cx="142.026" cy="863.661" r="2.987" transform="rotate(-111.718 142.026 863.661)" fill="#26D5CF"/><circle cx="310.701" cy="1138.54" r="2.987" transform="rotate(29.892 310.701 1138.54)" fill="#2B1363"/><circle cx="37.959" cy="1244.74" r="2.987" transform="rotate(169.515 37.96 1244.74)" fill="#2B1363"/><circle cx="348.635" cy="841.611" r="2.987" transform="rotate(71.61 348.635 841.611)" fill="#2B1363"/><circle cx="201.414" cy="1495.52" r="2.987" transform="rotate(-148.766 201.414 1495.52)" fill="#2B1363"/><circle cx="411.269" cy="991.662" r="2.987" transform="rotate(29.892 411.269 991.662)" fill="#2B1363"/><circle cx="525.773" cy="1009.47" r="2.987" transform="rotate(29.892 525.773 1009.47)" fill="#2B1363"/><circle cx="53.837" cy="1510.38" r="2.987" transform="rotate(29.892 53.837 1510.38)" fill="#26D5CF"/><circle opacity=".5" cx="78.294" cy="1438.48" r="2.987" transform="rotate(-77.27 78.294 1438.48)" fill="#26D5CF"/><circle cx="412.846" cy="1204.53" r="2.987" transform="rotate(-160.966 412.846 1204.53)" fill="#241050"/><circle cx="498.153" cy="899.663" r="2.987" transform="rotate(-160.966 498.153 899.663)" fill="#241050"/><circle cx="449.55" cy="1431.18" r="2.987" transform="rotate(-101.064 449.55 1431.18)" fill="#241050"/><circle cx="298.223" cy="1507.86" r="2.987" transform="rotate(-160.966 298.223 1507.86)" fill="#26D5CF"/><circle cx="488.608" cy="1201.93" r="2.987" transform="rotate(-112.598 488.608 1201.93)" fill="#2B1363"/><circle cx="81.809" cy="871.945" r="2.987" transform="rotate(-112.598 81.809 871.945)" fill="#2B1363"/><circle opacity=".4" cx=".224" cy="1106.86" r="2.987" transform="rotate(-2.897 .224 1106.86)" fill="#26D5CF"/><circle opacity=".5" cx="14.064" cy="1218.64" r="4.267" transform="rotate(-78.928 14.064 1218.64)" fill="#26D5CF"/><circle opacity=".5" cx="101.719" cy="979.413" r="2.56" transform="rotate(15.23 101.719 979.413)" fill="#26D5CF"/><circle opacity=".5" cx="54.794" cy="904.898" r="2.56" transform="rotate(-78.928 54.794 904.898)" fill="#26D5CF"/><circle opacity=".5" cx="65.634" cy="1435.11" r="2.56" transform="rotate(15.84 65.634 1435.11)" fill="#26D5CF"/><circle cx="334.779" cy="1280.15" r="2.56" transform="rotate(-78.928 334.779 1280.15)" fill="#26D5CF"/><circle cx="226.305" cy="913.811" r="2.56" transform="rotate(-37.21 226.305 913.811)" fill="#26D5CF"/><circle cx="247.834" cy="1361.27" r="2.56" transform="rotate(102.414 247.834 1361.27)" fill="#26D5CF"/><circle cx="362.523" cy="1069.99" r="2.56" transform="rotate(90.213 362.523 1069.99)" fill="#2B1363"/><circle cx="432.933" cy="824.932" r="2.56" transform="rotate(131.932 432.933 824.932)" fill="#2B1363"/><circle cx="448.112" cy="1491.52" r="2.56" transform="rotate(131.419 448.112 1491.52)" fill="#2B1363"/><circle cx="489.205" cy="1339.75" r="2.56" transform="rotate(90.213 489.205 1339.75)" fill="#2B1363"/><circle cx="335.769" cy="1340.03" r="2.56" transform="rotate(90.213 335.769 1340.03)" fill="#26D5CF"/><circle cx="233.259" cy="1008.69" r="2.56" transform="rotate(131.932 233.259 1008.69)" fill="#26D5CF"/><circle cx="181.074" cy="1293.49" r="2.56" transform="rotate(-88.444 181.074 1293.49)" fill="#26D5CF"/><circle cx="4.06" cy="1369.88" r="2.56" transform="rotate(-111.718 4.06 1369.88)" fill="#26D5CF"/><circle cx="95.007" cy="994.011" r="2.56" transform="rotate(-17.56 95.007 994.011)" fill="#26D5CF"/><circle cx="162.824" cy="927.129" r="2.56" transform="rotate(-111.718 162.824 927.129)" fill="#26D5CF"/><circle cx="399.913" cy="1128.4" r="2.56" transform="rotate(29.892 399.913 1128.4)" fill="#2B1363"/><circle cx="437.765" cy="1560.1" r="2.56" transform="rotate(71.098 437.765 1560.1)" fill="#2B1363"/><circle cx="526.595" cy="1398.16" r="2.56" transform="rotate(29.892 526.595 1398.16)" fill="#2B1363"/><circle cx="393.58" cy="1418.38" r="2.56" transform="rotate(29.892 393.58 1418.38)" fill="#2B1363"/><circle cx="130.995" cy="1016.24" r="2.56" transform="rotate(71.61 130.995 1016.24)" fill="#26D5CF"/><circle cx="448.53" cy="1540.52" r="2.56" transform="rotate(78.26 448.53 1540.52)" fill="#2B1363"/><circle cx="130.119" cy="811.702" r="2.56" transform="rotate(78.26 130.119 811.702)" fill="#2B1363"/><circle opacity=".5" cx="109.744" cy="1437.98" r="2.56" transform="rotate(29.892 109.744 1437.98)" fill="#26D5CF"/><circle cx="40.654" cy="1172.65" r="2.56" transform="rotate(-172.039 40.654 1172.65)" fill="#26D5CF"/><circle cx="299.18" cy="921.785" r="2.56" transform="rotate(-119.248 299.18 921.785)" fill="#26D5CF"/><circle cx="187.152" cy="1402.4" r="2.56" transform="rotate(20.376 187.152 1402.4)" fill="#26D5CF"/><circle cx="98.604" cy="928.392" r="1.707" transform="rotate(-78.928 98.604 928.392)" fill="#26D5CF"/><circle opacity=".2" cx="101.873" cy="1426.16" r="1.707" transform="rotate(-78.928 101.873 1426.16)" fill="#26D5CF"/><circle cx="431.963" cy="984.065" r="1.707" transform="rotate(90.213 431.963 984.065)" fill="#2B1363"/><circle cx="546.775" cy="1253.82" r="1.707" transform="rotate(90.213 546.775 1253.82)" fill="#2B1363"/><circle cx="222.53" cy="1535.79" r="1.707" transform="rotate(138.063 222.53 1535.79)" fill="#26D5CF"/><circle cx="329.061" cy="1562.74" r="1.707" transform="rotate(-173.568 329.061 1562.74)" fill="#2B1363"/><circle cx="64.831" cy="1318.51" r="1.707" transform="rotate(-111.718 64.831 1318.51)" fill="#26D5CF"/><circle cx="97.864" cy="1041.74" r="1.707" transform="rotate(-64.8 97.864 1041.74)" fill="#26D5CF"/><circle cx="347.77" cy="1025.52" r="1.707" transform="rotate(29.892 347.77 1025.52)" fill="#2B1363"/><circle cx="82.933" cy="1354.85" r="1.707" transform="rotate(169.515 82.933 1354.85)" fill="#2B1363"/><circle cx="466.307" cy="1448.35" r="1.707" transform="rotate(71.098 466.307 1448.35)" fill="#2B1363"/><circle cx="474.451" cy="1295.28" r="1.707" transform="rotate(29.892 474.451 1295.28)" fill="#2B1363"/><circle cx="332.885" cy="1295.56" r="1.707" transform="rotate(29.892 332.885 1295.56)" fill="#26D5CF"/><circle cx="23.343" cy="1410.06" r="1.707" transform="rotate(-172.039 23.343 1410.06)" fill="#26D5CF"/><circle cx="53.54" cy="1010.33" r="1.707" transform="rotate(-77.881 53.54 1010.33)" fill="#26D5CF"/><circle cx="386.074" cy="1324.74" r="1.707" transform="rotate(-160.966 386.074 1324.74)" fill="#241050"/><circle cx="280.981" cy="1030.75" r="1.707" transform="rotate(-119.248 280.981 1030.75)" fill="#241050"/><circle cx="130.425" cy="1307.6" r="1.707" transform="rotate(20.376 130.425 1307.6)" fill="#241050"/><circle cx="332.12" cy="1468.3" r="1.707" transform="rotate(-101.064 332.12 1468.3)" fill="#241050"/><circle opacity=".5" cx="31.24" cy="1145.67" r="1.707" transform="rotate(-78.928 31.24 1145.67)" fill="#26D5CF"/><circle cx="250.228" cy="1095.36" r="1.279" transform="rotate(79.14 250.228 1095.36)" fill="#2B1363"/><circle cx="111.999" cy="1238.46" r="1.279" transform="rotate(-141.236 111.999 1238.46)" fill="#2B1363"/><circle cx="322.921" cy="1081.07" r="1.707" transform="rotate(29.892 322.921 1081.07)" fill="#2B1363"/><circle cx="65.879" cy="1296.43" r="1.707" transform="rotate(169.515 65.88 1296.43)" fill="#2B1363"/><circle cx="396" cy="806.847" r="1.707" transform="rotate(71.61 396 806.847)" fill="#2B1363"/><circle cx="423.488" cy="934.193" r="1.707" transform="rotate(29.892 423.488 934.193)" fill="#2B1363"/><circle cx="449.603" cy="1350.83" r="1.707" transform="rotate(29.892 449.603 1350.83)" fill="#2B1363"/><circle cx="296.166" cy="1374.85" r="1.707" transform="rotate(29.892 296.166 1374.85)" fill="#26D5CF"/><circle cx="180.527" cy="1008.32" r="1.707" transform="rotate(71.61 180.527 1008.32)" fill="#26D5CF"/><circle cx="66.056" cy="1476.65" r="1.707" transform="rotate(29.892 66.056 1476.65)" fill="#26D5CF"/><circle cx="138.479" cy="1447.75" r="1.707" transform="rotate(-77.27 138.479 1447.75)" fill="#26D5CF"/><circle cx="407.199" cy="1239.96" r="1.707" transform="rotate(-160.966 407.199 1239.96)" fill="#241050"/><circle cx="492.507" cy="935.09" r="1.707" transform="rotate(-160.966 492.507 935.09)" fill="#241050"/><circle cx="398.79" cy="1610.65" r="1.707" transform="rotate(-59.858 398.79 1610.65)" fill="#241050"/><circle cx="413.384" cy="931.942" r="1.707" transform="rotate(90.213 413.384 931.942)" fill="#2B1363"/><circle cx="540.066" cy="1201.7" r="1.707" transform="rotate(90.213 540.066 1201.7)" fill="#2B1363"/><circle cx="248.706" cy="1487.04" r="1.707" transform="rotate(138.063 248.706 1487.04)" fill="#2B1363"/><circle cx="101.533" cy="1359.92" r="1.707" transform="rotate(-111.718 101.533 1359.92)" fill="#26D5CF"/><circle cx="392.255" cy="1285.57" r="1.707" transform="rotate(-160.966 392.255 1285.57)" fill="#26D5CF"/><circle cx="360.534" cy="1515.78" r="1.707" transform="rotate(-101.064 360.534 1515.78)" fill="#26D5CF"/><circle cx="33.428" cy="1488.51" r="2.56" transform="rotate(-78.928 33.428 1488.51)" fill="#26D5CF"/><circle cx="338.329" cy="890.749" r="1.707" transform="rotate(-37.21 338.329 890.749)" fill="#26D5CF"/><circle cx="177.433" cy="1451.41" r="1.707" transform="rotate(102.414 177.433 1451.41)" fill="#26D5CF"/><circle cx="221.086" cy="1485.41" r="1.707" transform="rotate(-78.928 221.086 1485.41)" fill="#26D5CF"/><circle cx="454.146" cy="1129.36" r="1.707" transform="rotate(-30.56 454.146 1129.36)" fill="#2B1363"/><circle cx="47.852" cy="1061.4" r="1.707" transform="rotate(79.14 47.852 1061.4)" fill="#26D5CF"/><circle cx="380.084" cy="1166.48" r="1.707" transform="rotate(90.213 380.084 1166.48)" fill="#241050"/><circle cx="465.391" cy="861.617" r="1.707" transform="rotate(90.213 465.391 861.617)" fill="#241050"/><circle cx="381.827" cy="908.642" r="1.707" transform="rotate(131.932 381.827 908.642)" fill="#241050"/><circle cx="466.039" cy="1383.76" r="1.707" transform="rotate(150.116 466.039 1383.76)" fill="#241050"/><circle cx="265.461" cy="1469.82" r="1.707" transform="rotate(90.213 265.461 1469.82)" fill="#2B1363"/><circle cx="495.28" cy="1152.17" r="1.707" transform="rotate(138.581 495.28 1152.17)" fill="#2B1363"/><circle cx="88.481" cy="822.183" r="1.707" transform="rotate(138.581 88.481 822.183)" fill="#2B1363"/><circle cx="44.824" cy="1129.92" r="1.707" transform="rotate(-111.718 44.824 1129.92)" fill="#26D5CF"/><circle cx="342.034" cy="868.113" r="1.279" transform="rotate(-37.21 342.034 868.113)" fill="#26D5CF"/><circle cx="189.274" cy="1471.05" r="1.279" transform="rotate(102.414 189.274 1471.05)" fill="#26D5CF"/><circle cx="208.788" cy="1466.05" r="1.279" transform="rotate(-78.928 208.788 1466.05)" fill="#26D5CF"/><circle cx="460.447" cy="1107.31" r="1.279" transform="rotate(-30.56 460.447 1107.31)" fill="#2B1363"/><circle cx="129.259" cy="1483.28" r="1.279" transform="rotate(-78.928 129.259 1483.28)" fill="#26D5CF"/><circle cx="271.72" cy="925.663" r="1.279" transform="rotate(126.059 271.72 925.663)" fill="#26D5CF"/><circle cx="205.559" cy="1381.66" r="1.279" transform="rotate(-94.318 205.559 1381.66)" fill="#26D5CF"/><circle opacity=".5" cx="97.642" cy="1419.2" r="1.279" transform="rotate(173.909 97.642 1419.2)" fill="#26D5CF"/><circle cx="395.809" cy="1183.18" r="1.279" transform="rotate(90.213 395.809 1183.18)" fill="#241050"/><circle cx="481.117" cy="878.315" r="1.279" transform="rotate(90.213 481.117 878.315)" fill="#241050"/><circle cx="459.477" cy="1405.73" r="1.279" transform="rotate(150.116 459.477 1405.73)" fill="#241050"/><circle cx="281.186" cy="1486.51" r="1.279" transform="rotate(90.213 281.186 1486.51)" fill="#2B1363"/><circle cx="493.246" cy="1175.02" r="1.279" transform="rotate(138.581 493.246 1175.02)" fill="#2B1363"/><circle cx="86.447" cy="845.029" r="1.279" transform="rotate(138.581 86.447 845.029)" fill="#2B1363"/><circle cx="509.415" cy="1143.48" r="2.56" transform="rotate(-78.928 509.415 1143.48)" fill="#2B1363"/><circle cx="418.018" cy="1062.52" r="2.56" transform="rotate(90.213 418.018 1062.52)" fill="#2B1363"/><circle cx="518.586" cy="915.641" r="2.56" transform="rotate(90.213 518.586 915.641)" fill="#2B1363"/><circle cx="544.7" cy="1332.28" r="2.56" transform="rotate(90.213 544.7 1332.28)" fill="#2B1363"/><circle cx="391.264" cy="1332.56" r="2.56" transform="rotate(90.213 391.264 1332.56)" fill="#241050"/><circle cx="279.654" cy="1040.04" r="2.56" transform="rotate(131.932 279.654 1040.04)" fill="#241050"/><circle cx="125.42" cy="1299.66" r="2.56" transform="rotate(-88.444 125.42 1299.66)" fill="#241050"/><circle cx="327.962" cy="1476.71" r="2.56" transform="rotate(150.116 327.962 1476.71)" fill="#241050"/><circle cx="208.799" cy="978.388" r="2.56" transform="rotate(-37.21 208.799 978.388)" fill="#26D5CF"/><circle cx="219.337" cy="1300.73" r="2.56" transform="rotate(102.414 219.337 1300.73)" fill="#26D5CF"/><circle cx="377.329" cy="1010.36" r="2.56" transform="rotate(90.213 377.329 1010.36)" fill="#2B1363"/><circle cx="498.536" cy="1456.41" r="2.56" transform="rotate(131.419 498.536 1456.41)" fill="#2B1363"/><circle cx="504.011" cy="1280.12" r="2.56" transform="rotate(90.213 504.011 1280.12)" fill="#2B1363"/><circle cx="1.587" cy="1435.17" r="2.56" transform="rotate(-111.718 1.587 1435.17)" fill="#26D5CF"/><circle cx="27.702" cy="972.348" r="2.56" transform="rotate(-17.56 27.702 972.348)" fill="#26D5CF"/><circle cx="349.44" cy="1111.31" r="2.56" transform="rotate(29.892 349.44 1111.31)" fill="#2B1363"/><circle cx="26.089" cy="1290.58" r="2.56" transform="rotate(169.515 26.09 1290.58)" fill="#2B1363"/><circle cx="395.674" cy="847.064" r="2.56" transform="rotate(71.61 395.674 847.064)" fill="#2B1363"/><circle cx="411.052" cy="1513.99" r="2.56" transform="rotate(71.098 411.052 1513.99)" fill="#2B1363"/><circle cx="476.122" cy="1381.07" r="2.56" transform="rotate(29.892 476.122 1381.07)" fill="#2B1363"/><circle cx="172.539" cy="878.551" r="2.56" transform="rotate(71.61 172.539 878.551)" fill="#26D5CF"/><circle cx="55.867" cy="1376.25" r="2.56" transform="rotate(-172.039 55.867 1376.25)" fill="#26D5CF"/><circle cx="374.982" cy="1275.78" r="2.56" transform="rotate(-160.966 374.982 1275.78)" fill="#241050"/><circle cx="305.284" cy="986.828" r="2.56" transform="rotate(-119.248 305.284 986.828)" fill="#241050"/><circle cx="140.367" cy="1356.81" r="2.56" transform="rotate(20.376 140.367 1356.81)" fill="#241050"/><circle cx="369.844" cy="1572.13" r="2.56" transform="rotate(-59.858 369.844 1572.13)" fill="#241050"/></svg>