<?xml version="1.0" standalone="no"?>
<!DOCTYPE svg PUBLIC "-//W3C//DTD SVG 20010904//EN"
 "http://www.w3.org/TR/2001/REC-SVG-20010904/DTD/svg10.dtd">
<svg version="1.0" xmlns="http://www.w3.org/2000/svg"
 width="700.000000pt" height="700.000000pt" viewBox="0 0 700.000000 700.000000"
 preserveAspectRatio="xMidYMid meet">
<metadata>
Created by potrace 1.14, written by Peter Selinger 2001-2017
</metadata>
<g transform="translate(0.000000,700.000000) scale(0.100000,-0.100000)"
fill="#000000" stroke="none">
<path d="M661 6985 c-310 -68 -559 -398 -638 -845 -17 -100 -18 -221 -18
-2640 0 -2419 1 -2540 18 -2640 49 -275 163 -511 322 -665 83 -81 154 -126
257 -163 l73 -27 2820 0 2820 0 70 22 c316 100 556 466 605 925 14 134 14
4968 0 5093 -49 421 -242 756 -515 891 -139 68 79 64 -2980 63 -2318 0 -2780
-3 -2834 -14z m1068 -2137 c13 -36 22 -257 12 -277 -6 -10 -37 -28 -70 -40
-77 -28 -137 -73 -178 -135 -57 -84 -65 -127 -73 -381 -8 -249 -14 -278 -69
-359 -17 -24 -60 -71 -97 -104 l-65 -59 50 -32 c66 -43 118 -101 149 -169 24
-53 26 -67 32 -297 6 -207 10 -248 27 -297 42 -115 124 -197 235 -234 27 -9
53 -25 59 -37 17 -30 2 -244 -18 -276 -15 -23 -19 -23 -90 -17 -179 15 -312
73 -423 185 -87 87 -127 157 -166 286 -25 85 -27 106 -33 360 -5 175 -11 277
-19 291 -21 39 -78 80 -128 94 -80 21 -84 29 -84 140 0 110 0 110 90 154 57
28 103 66 123 101 8 13 14 115 18 290 7 306 13 343 85 492 99 206 314 338 562
342 56 1 63 -1 71 -21z m3806 -3 c175 -47 320 -163 393 -316 72 -150 92 -272
92 -567 0 -246 2 -251 143 -322 l72 -37 3 -105 c3 -118 -1 -125 -73 -146 -54
-16 -100 -45 -122 -79 -16 -23 -19 -60 -24 -278 -4 -137 -12 -275 -18 -305
-39 -174 -113 -318 -209 -400 -98 -83 -254 -145 -397 -156 -38 -3 -76 -1 -83
4 -21 14 -32 78 -32 188 0 109 6 123 60 139 83 25 176 100 213 171 41 80 49
135 56 379 6 226 8 243 30 285 39 73 70 108 138 153 l64 42 -33 24 c-62 47
-137 132 -165 189 -28 56 -28 61 -34 287 -7 245 -15 296 -65 381 -35 62 -117
130 -185 155 -32 12 -64 28 -70 36 -16 19 -5 269 13 290 10 13 28 14 93 10 44
-4 107 -14 140 -22z m-2448 -566 c130 -33 333 -159 333 -206 0 -20 -189 -213
-208 -213 -8 0 -41 18 -74 40 -181 120 -407 97 -548 -57 -209 -229 -129 -603
152 -716 41 -16 75 -21 148 -21 110 -1 173 17 251 70 28 19 59 34 69 34 21 0
210 -195 210 -217 0 -32 -134 -134 -233 -177 -139 -61 -345 -79 -492 -42 -227
57 -416 211 -516 421 -58 121 -73 190 -73 335 0 175 37 297 132 436 50 74 171
189 245 233 70 41 201 87 287 100 85 13 225 4 317 -20z m1433 4 c85 -20 155
-52 227 -101 80 -56 115 -90 111 -113 -4 -23 -186 -209 -205 -209 -7 0 -36 15
-63 34 -180 124 -399 108 -546 -38 -179 -179 -172 -480 15 -649 143 -129 362
-140 534 -26 26 17 55 29 65 27 11 -2 61 -47 111 -101 67 -71 91 -104 89 -120
-4 -30 -109 -111 -203 -157 -226 -110 -507 -99 -725 27 -84 49 -234 199 -283
283 -125 216 -135 505 -25 725 121 240 340 399 600 435 80 11 214 3 298 -17z"/>
</g>
</svg>
